<svg width="60" height="60" viewBox="0 0 60 60" fill="none" xmlns="http://www.w3.org/2000/svg">
<path d="M27.0833 21.25H32.9166V15.4167H27.0833M30 53.3333C17.1375 53.3333 6.66665 42.8625 6.66665 30C6.66665 17.1375 17.1375 6.66666 30 6.66666C42.8625 6.66666 53.3333 17.1375 53.3333 30C53.3333 42.8625 42.8625 53.3333 30 53.3333ZM30 0.833328C26.1698 0.833328 22.377 1.58775 18.8384 3.05351C15.2997 4.51927 12.0844 6.66767 9.37603 9.37605C3.90622 14.8459 0.833313 22.2645 0.833313 30C0.833313 37.7355 3.90622 45.1541 9.37603 50.6239C12.0844 53.3323 15.2997 55.4807 18.8384 56.9465C22.377 58.4122 26.1698 59.1667 30 59.1667C37.7355 59.1667 45.1541 56.0938 50.6239 50.6239C56.0937 45.1541 59.1666 37.7355 59.1666 30C59.1666 26.1698 58.4122 22.3771 56.9465 18.8384C55.4807 15.2997 53.3323 12.0844 50.6239 9.37605C47.9156 6.66767 44.7002 4.51927 41.1616 3.05351C37.6229 1.58775 33.8302 0.833328 30 0.833328ZM27.0833 44.5833H32.9166V27.0833H27.0833V44.5833Z" fill="#C9B38C"/>
</svg>
