<svg width="60" height="60" viewBox="0 0 60 60" fill="none" xmlns="http://www.w3.org/2000/svg">
<path d="M30 0.833328C26.1698 0.833328 22.3771 1.58775 18.8384 3.05351C15.2997 4.51927 12.0844 6.66767 9.37605 9.37605C3.90624 14.8459 0.833336 22.2645 0.833336 30C0.833336 37.7355 3.90624 45.1541 9.37605 50.6239C12.0844 53.3323 15.2997 55.4807 18.8384 56.9465C22.3771 58.4122 26.1698 59.1667 30 59.1667C37.7355 59.1667 45.1541 56.0938 50.6239 50.6239C56.0938 45.1541 59.1667 37.7355 59.1667 30C59.1667 26.6167 58.5542 23.2625 57.3875 20.1125L52.7208 24.7792C53.1292 26.5 53.3333 28.25 53.3333 30C53.3333 36.1884 50.875 42.1233 46.4992 46.4992C42.1233 50.875 36.1884 53.3333 30 53.3333C23.8116 53.3333 17.8767 50.875 13.5008 46.4992C9.125 42.1233 6.66667 36.1884 6.66667 30C6.66667 23.8116 9.125 17.8767 13.5008 13.5008C17.8767 9.12499 23.8116 6.66666 30 6.66666C31.75 6.66666 33.5 6.87083 35.2208 7.27916L39.9167 2.58333C36.7375 1.44583 33.3833 0.833328 30 0.833328ZM50.4167 0.833328L38.75 12.5V16.875L31.3125 24.3125C30.875 24.1667 30.4375 24.1667 30 24.1667C28.4529 24.1667 26.9692 24.7812 25.8752 25.8752C24.7812 26.9692 24.1667 28.4529 24.1667 30C24.1667 31.5471 24.7812 33.0308 25.8752 34.1248C26.9692 35.2187 28.4529 35.8333 30 35.8333C31.5471 35.8333 33.0308 35.2187 34.1248 34.1248C35.2188 33.0308 35.8333 31.5471 35.8333 30C35.8333 29.5625 35.8333 29.125 35.6875 28.6875L43.125 21.25H47.5L59.1667 9.58333H50.4167V0.833328ZM30 12.5C25.3587 12.5 20.9075 14.3437 17.6256 17.6256C14.3437 20.9075 12.5 25.3587 12.5 30C12.5 34.6413 14.3437 39.0925 17.6256 42.3744C20.9075 45.6562 25.3587 47.5 30 47.5C34.6413 47.5 39.0925 45.6562 42.3744 42.3744C45.6563 39.0925 47.5 34.6413 47.5 30H41.6667C41.6667 33.0942 40.4375 36.0616 38.2496 38.2496C36.0617 40.4375 33.0942 41.6667 30 41.6667C26.9058 41.6667 23.9383 40.4375 21.7504 38.2496C19.5625 36.0616 18.3333 33.0942 18.3333 30C18.3333 26.9058 19.5625 23.9383 21.7504 21.7504C23.9383 19.5625 26.9058 18.3333 30 18.3333V12.5Z" fill="#C9B38C"/>
</svg>
