<svg width="62" height="62" viewBox="0 0 62 62" fill="none" xmlns="http://www.w3.org/2000/svg">
<path d="M61.625 28.8125H57.1406C56.617 22.6352 53.9252 16.8422 49.5415 12.4585C45.1578 8.07476 39.3648 5.38298 33.1875 4.85938V0.375H28.8125V4.85938C22.6352 5.38298 16.8422 8.07476 12.4585 12.4585C8.07476 16.8422 5.38298 22.6352 4.85938 28.8125H0.375V33.1875H4.85938C5.38298 39.3648 8.07476 45.1578 12.4585 49.5415C16.8422 53.9252 22.6352 56.617 28.8125 57.1406V61.625H33.1875V57.1406C39.3648 56.617 45.1578 53.9252 49.5415 49.5415C53.9252 45.1578 56.617 39.3648 57.1406 33.1875H61.625V28.8125ZM33.1875 52.7656V46.3125H28.8125V52.7656C23.7943 52.2543 19.1062 50.0273 15.5394 46.4606C11.9727 42.8938 9.74569 38.2057 9.23438 33.1875H15.6875V28.8125H9.23438C9.74569 23.7943 11.9727 19.1062 15.5394 15.5394C19.1062 11.9727 23.7943 9.74569 28.8125 9.23438V15.6875H33.1875V9.23438C38.2057 9.74569 42.8938 11.9727 46.4606 15.5394C50.0273 19.1062 52.2543 23.7943 52.7656 28.8125H46.3125V33.1875H52.7634C52.2522 38.2053 50.0255 42.8932 46.4592 46.4599C42.8929 50.0266 38.2053 52.2538 33.1875 52.7656Z" fill="#C9B38C"/>
</svg>
